<?xml version="1.0" standalone="no"?>
<!DOCTYPE svg PUBLIC "-//W3C//DTD SVG 20010904//EN"
 "http://www.w3.org/TR/2001/REC-SVG-20010904/DTD/svg10.dtd">
<svg version="1.0" xmlns="http://www.w3.org/2000/svg"
 width="882.000000pt" height="882.000000pt" viewBox="0 0 882.000000 882.000000"
 preserveAspectRatio="xMidYMid meet">

<g transform="translate(0.000000,882.000000) scale(0.100000,-0.100000)"
fill="#000000" stroke="none">
<path d="M4203 6247 c-24 -6 -43 -14 -43 -18 0 -5 -9 -9 -20 -9 -11 0 -20 -4
-20 -10 0 -5 -7 -10 -16 -10 -19 0 -124 -107 -124 -127 0 -7 -4 -13 -9 -13
-10 0 -41 -117 -41 -157 -1 -52 34 -283 42 -283 4 0 8 -10 8 -22 0 -23 49
-170 60 -178 3 -3 16 -20 29 -37 18 -26 29 -33 56 -33 31 0 35 3 40 33 4 18 5
37 3 42 -5 15 25 115 34 115 4 0 8 9 8 20 0 11 5 20 10 20 6 0 10 9 10 20 0
11 5 20 10 20 6 0 10 4 10 10 0 16 34 90 42 90 3 0 9 13 13 30 4 16 11 32 16
35 5 4 9 15 9 26 0 10 5 19 10 19 6 0 10 11 10 24 0 14 5 28 10 31 6 3 10 21
10 40 0 19 5 37 10 40 6 3 10 44 10 90 0 46 -4 87 -10 90 -5 3 -10 15 -10 26
0 21 -22 49 -38 49 -6 0 -12 5 -14 11 -6 17 -70 26 -115 16z m65 -109 c13 -13
17 -178 4 -178 -4 0 -12 -21 -19 -47 -13 -58 -45 -133 -55 -133 -5 0 -8 -9 -8
-19 0 -17 -27 -78 -40 -91 -12 -12 -30 -51 -30 -64 0 -7 -6 -19 -14 -25 -11
-9 -15 -8 -21 6 -12 27 -37 159 -51 261 -7 55 11 162 28 162 4 0 8 6 8 13 1
34 118 124 166 126 11 1 25 -4 32 -11z"/>
<path d="M4015 5240 c-3 -5 -24 -10 -45 -10 -21 0 -42 -4 -45 -10 -3 -5 -16
-10 -27 -10 -28 0 -132 -32 -136 -42 -2 -5 -15 -8 -28 -8 -13 0 -24 -4 -24
-10 0 -5 -11 -10 -25 -10 -14 0 -25 -4 -25 -10 0 -5 -6 -10 -14 -10 -16 0 -87
-37 -161 -85 -31 -19 -58 -35 -60 -35 -15 0 -266 -244 -297 -290 -46 -66 -68
-102 -68 -110 0 -6 -4 -10 -8 -10 -4 0 -16 -22 -27 -50 -11 -27 -23 -50 -27
-50 -4 0 -8 -13 -8 -30 0 -16 -4 -30 -10 -30 -5 0 -10 -13 -10 -28 0 -15 -4
-32 -8 -37 -20 -22 -37 -168 -37 -305 0 -146 18 -317 36 -334 5 -6 9 -22 9
-37 0 -15 5 -31 10 -34 6 -3 10 -17 10 -31 0 -13 5 -24 10 -24 6 0 10 -7 10
-16 0 -21 49 -112 78 -144 12 -14 22 -28 22 -32 0 -15 85 -91 130 -116 25 -14
60 -34 78 -44 18 -10 39 -18 47 -18 8 0 15 -4 15 -8 0 -10 88 -42 118 -42 12
0 22 -4 22 -10 0 -5 11 -10 25 -10 14 0 25 -4 25 -10 0 -5 9 -10 21 -10 11 0
28 -4 38 -10 32 -16 131 -31 291 -42 85 -6 169 -10 185 -9 17 0 107 3 200 6
94 3 193 9 220 15 28 5 91 14 140 20 142 17 169 21 180 31 5 5 17 9 27 9 10 0
26 4 36 9 9 5 44 17 77 27 33 9 64 21 70 26 5 4 19 8 31 8 12 0 24 3 26 8 2 4
38 24 81 46 42 21 77 41 77 45 0 3 20 15 45 26 25 11 45 23 45 27 0 5 6 8 13
8 6 0 38 20 69 45 32 25 60 45 62 45 9 0 101 95 131 135 17 22 32 42 35 45 3
3 12 19 21 35 8 17 20 39 26 50 42 79 63 125 63 139 0 9 5 16 10 16 6 0 10 9
10 19 0 23 13 28 82 36 61 7 148 35 148 47 0 4 6 8 14 8 7 0 31 17 53 38 35
33 51 57 84 124 5 10 9 38 9 62 0 37 -6 51 -33 80 -18 19 -46 37 -63 41 -16 3
-37 10 -46 16 -23 12 -115 12 -123 -1 -3 -5 -17 -10 -31 -10 -14 0 -38 -7 -54
-15 -33 -17 -28 -23 -78 99 -24 60 -82 129 -124 150 -17 9 -49 16 -71 16 -34
0 -47 -6 -77 -39 -64 -69 -77 -187 -34 -313 23 -64 25 -80 14 -93 -7 -8 -16
-15 -21 -15 -10 0 -32 51 -46 105 -15 57 -47 139 -55 143 -5 2 -8 15 -8 28 0
13 -4 24 -10 24 -5 0 -10 7 -10 16 0 18 -51 117 -62 122 -5 2 -8 10 -8 17 0 7
-11 27 -25 43 -14 17 -25 33 -25 37 0 8 -53 79 -62 83 -5 2 -8 8 -8 13 0 5
-15 25 -34 44 -19 18 -35 37 -37 42 -2 5 -17 18 -33 31 -16 12 -25 22 -21 22
5 0 -3 9 -16 21 -13 11 -34 29 -47 40 -12 10 -25 19 -28 19 -2 0 -17 11 -32
25 -15 14 -32 25 -39 25 -7 0 -13 5 -13 10 0 6 -5 10 -11 10 -5 0 -27 11 -47
25 -20 14 -45 25 -54 25 -10 0 -18 5 -18 10 0 6 -7 10 -15 10 -8 0 -15 5 -15
10 0 6 -13 10 -30 10 -16 0 -30 5 -30 10 0 6 -10 10 -22 10 -13 1 -34 7 -48
15 -14 8 -39 14 -57 15 -17 0 -34 4 -37 9 -10 15 -83 23 -258 27 -109 3 -168
1 -173 -6z m365 -118 c111 -20 187 -46 320 -110 19 -9 37 -19 40 -22 3 -3 21
-13 40 -24 41 -22 64 -42 187 -164 51 -50 100 -106 109 -124 9 -18 24 -40 33
-48 9 -8 24 -31 33 -50 19 -37 40 -72 48 -80 3 -3 14 -25 24 -50 10 -25 22
-53 27 -62 5 -10 9 -25 9 -33 0 -8 5 -15 10 -15 6 0 10 -8 10 -17 0 -10 12
-49 25 -88 18 -50 25 -91 25 -143 0 -63 3 -76 24 -99 l24 -26 54 25 c56 27
168 130 168 154 0 8 5 14 10 14 6 0 10 14 10 30 0 17 -4 30 -10 30 -5 0 -10 7
-10 15 0 9 -9 25 -19 36 -21 23 -37 137 -26 188 10 49 28 56 64 25 17 -14 31
-32 31 -40 0 -8 3 -14 8 -14 10 0 30 -47 38 -90 15 -79 53 -120 111 -120 24 0
43 4 43 8 0 25 198 47 233 25 23 -14 -3 -76 -51 -122 -58 -55 -103 -71 -200
-71 -87 0 -131 -20 -164 -73 -12 -21 -33 -44 -45 -53 -13 -8 -23 -19 -23 -26
0 -14 -29 -39 -114 -95 -39 -25 -83 -55 -98 -65 -15 -10 -36 -18 -48 -18 -11
0 -20 -4 -20 -8 0 -5 -19 -15 -42 -22 -24 -7 -57 -19 -75 -26 -17 -8 -41 -14
-53 -14 -12 0 -31 -5 -42 -11 -33 -18 -396 -13 -483 5 -74 17 -140 38 -151 49
-4 4 -22 7 -41 7 -18 0 -33 5 -33 10 0 6 -13 10 -30 10 -16 0 -30 4 -30 8 0 5
-6 9 -13 9 -21 0 -160 34 -179 44 -23 12 -403 12 -426 0 -9 -5 -44 -17 -77
-27 -33 -9 -69 -22 -80 -27 -11 -6 -28 -14 -37 -19 -60 -29 -151 -80 -162 -90
-8 -7 -25 -21 -39 -31 -14 -10 -45 -38 -70 -63 -43 -42 -67 -55 -67 -34 0 5
-10 19 -23 32 -23 23 -55 89 -80 169 -31 94 -48 216 -48 354 -1 162 16 261 66
380 34 82 40 95 47 95 5 0 8 7 8 15 0 8 5 15 10 15 6 0 10 6 10 13 0 8 8 23
18 35 10 11 27 33 38 49 29 42 226 233 240 233 4 0 14 8 23 18 31 33 176 113
281 155 14 5 32 13 41 17 9 5 38 11 65 15 27 4 56 9 64 13 76 31 307 38 440
14z m1218 -1390 c-7 -10 -15 -19 -18 -22 -3 -3 -18 -23 -35 -45 -40 -54 -101
-110 -155 -142 -25 -15 -47 -30 -50 -33 -11 -15 -116 -80 -127 -80 -7 0 -13
-4 -13 -10 0 -5 -9 -10 -19 -10 -11 0 -21 -4 -23 -8 -6 -17 -300 -132 -335
-132 -12 0 -24 -4 -27 -9 -7 -12 -48 -18 -241 -38 -292 -31 -815 -21 -887 18
-10 5 -27 9 -37 9 -11 0 -23 5 -26 10 -3 6 -15 10 -26 10 -10 0 -19 5 -19 10
0 6 -9 10 -20 10 -20 0 -42 9 -172 69 -95 44 -98 56 -28 129 47 47 174 132
199 132 6 0 11 3 11 8 0 4 39 20 88 36 48 16 91 33 96 38 14 12 363 10 371 -2
3 -5 18 -10 32 -10 28 0 126 -26 155 -41 10 -5 30 -9 46 -9 15 0 32 -4 37 -9
6 -5 51 -21 100 -36 50 -15 104 -32 120 -38 20 -8 111 -12 265 -12 224 0 279
5 340 34 8 4 43 16 78 26 34 11 62 23 62 27 0 5 9 8 19 8 11 0 21 3 23 8 2 4
33 22 71 40 37 19 73 39 80 45 42 41 93 55 65 19z"/>
<path d="M3631 4136 c-7 -8 -11 -30 -9 -48 3 -28 10 -36 51 -57 44 -22 49 -22
72 -7 43 28 26 94 -29 114 -43 16 -71 15 -85 -2z"/>
<path d="M3240 3986 c-28 -10 -37 -20 -44 -50 -12 -47 3 -63 65 -72 35 -5 49
-2 62 11 23 23 22 80 -3 105 -23 23 -31 23 -80 6z"/>
</g>
</svg>
